# xmcd
#
# Track frame offsets:
#	150
#	9373
#	21436
#	32517
#	45368
#	58486
#	67559
#	77069
#	89340
#	102340
#	112774
#	124372
#	136632
#	147726
#	157319
#	168197
#	180357
#	190732
#	201733
#	212930
#	222627
#	232812
#	245152
#	254991
#	265921
#	276588
#	289838
#	300460
#	313162
#	325895
#
# Disc length: 4513 seconds
#
# Revision: 0
# Processed by: cddbd v1.5.2PL0 Copyright (c) Steve Scherf et al.
# Submitted via: FairStars CD Ripper 1.90
#
DISCID=cb119f1e
DTITLE=Various Artist - Rumba Blues The Mambo Years
DYEAR=2010
DGENRE=Blues
TTITLE0=Rose Mitchell - Baby Please Don't Go
TTITLE1=Dickie Thompson - Thirteen Women and One Man
TTITLE2=The Griffin Brother - Griff's Mambo
TTITLE3=Jimmy McCracklin - I Cried
TTITLE4=Chuck Willis - I Feel So Bad
TTITLE5=Chuck Higgins - Dye-Oooh Mambo
TTITLE6=Marvin Philips - Salty Dog
TTITLE7=The Clovers - Lovey Dovey
TTITLE8=Illinois Jacquet - Mambocito Mio
TTITLE9=The Falcons and Candy Rivers - Mambo Baby To-Nite
TTITLE10=Big Maybelle - New Kind of Mambo
TTITLE11=Ruth Brown - Mambo Baby
TTITLE12=The Blue Flames and Chris Powell - Mambo Gunch
TTITLE13=Linda Hayes - Let's Babalu
TTITLE14=Joe Houston - Mambo
TTITLE15=Cliffie Stone Orchestra and Bob Roubian - Here Comes the Train
TTITLE16=Duke Jenkins - Mambo Blues
TTITLE17=Smiley Lewis - One Night
TTITLE18=Huey "Piano" Smith - We Like Mambo
TTITLE19=Eddie Bo - Hey Bo
TTITLE20=Junior Gordon - Blow Wind Blow
TTITLE21=Little Richard - Slippin' and Slidin'
TTITLE22=Clyde McPhatter - Thirty Days
TTITLE23=Elmore James - Can't Stop Lovin'
TTITLE24=Guitar Gable - Congo Mombo
TTITLE25=Howlin' Wolf - Evil
TTITLE26=Bo Diddley - Bo Diddley
TTITLE27=John Lee Hooker - Mambo Chillun
TTITLE28=Chuck Berry - Drifting Heart
TTITLE29=Neil Lewis Quintet - Harlem Nocturne
EXTD=
EXTT0=
EXTT1=
EXTT2=
EXTT3=
EXTT4=
EXTT5=
EXTT6=
EXTT7=
EXTT8=
EXTT9=
EXTT10=
EXTT11=
EXTT12=
EXTT13=
EXTT14=
EXTT15=
EXTT16=
EXTT17=
EXTT18=
EXTT19=
EXTT20=
EXTT21=
EXTT22=
EXTT23=
EXTT24=
EXTT25=
EXTT26=
EXTT27=
EXTT28=
EXTT29=
PLAYORDER=
